<svg class="animated" id="freepik_stories-horror-video-game" xmlns="http://www.w3.org/2000/svg" viewBox="0 0 500 500" version="1.1" xmlns:xlink="http://www.w3.org/1999/xlink" xmlns:svgjs="http://svgjs.com/svgjs"><style>svg#freepik_stories-horror-video-game:not(.animated) .animable {opacity: 0;}svg#freepik_stories-horror-video-game.animated #freepik--background-simple--inject-273 {animation: 6s Infinite  linear floating;animation-delay: 0s;}svg#freepik_stories-horror-video-game.animated #freepik--Hands--inject-273 {animation: 6s Infinite  linear floating;animation-delay: 0s;}            @keyframes floating {                0% {                    opacity: 1;                    transform: translateY(0px);                }                50% {                    transform: translateY(-10px);                }                100% {                    opacity: 1;                    transform: translateY(0px);                }            }        </style><g id="freepik--background-simple--inject-273" class="animable animator-active" style="transform-origin: 241.766px 250.451px;"><path d="M429.55,138.49q-4.23-2.81-8.38-5.73c-29.85-21-169.48-116.38-228.35-107.63C126.72,35-13.52,252,22.21,316.32s214.37,176,261.71,158.1S458.1,260.05,466.14,211.82C473,170.63,439.49,145.08,429.55,138.49Z" style="fill: rgb(57, 27, 133); transform-origin: 241.766px 250.451px;" id="elur1kvrk23hc" class="animable"></path><g id="elm0xxn5l9dio"><path d="M429.55,138.49q-4.23-2.81-8.38-5.73c-29.85-21-169.48-116.38-228.35-107.63C126.72,35-13.52,252,22.21,316.32s214.37,176,261.71,158.1S458.1,260.05,466.14,211.82C473,170.63,439.49,145.08,429.55,138.49Z" style="fill: rgb(255, 255, 255); opacity: 0.8; transform-origin: 241.766px 250.451px;" class="animable"></path></g></g><g id="freepik--Floor--inject-273" class="animable" style="transform-origin: 251.135px 407.76px;"><line x1="491.34" y1="407.76" x2="10.93" y2="407.76" style="fill: none; stroke: rgb(38, 50, 56); stroke-linecap: round; stroke-linejoin: round; transform-origin: 251.135px 407.76px;" id="elp5fvp7kopn" class="animable"></line></g><g id="freepik--Pictures--inject-273" class="animable" style="transform-origin: 248.755px 121.71px;"><g id="elqhezy7o8eo"><g style="opacity: 0.3; transform-origin: 426.55px 127.46px;" class="animable"><rect x="386.67" y="74.58" width="79.76" height="105.76" style="fill: rgb(255, 255, 255); stroke: rgb(0, 0, 0); stroke-linecap: round; stroke-linejoin: round; transform-origin: 426.55px 127.46px;" id="elycnv278hjv" class="animable"></rect><rect x="391.26" y="80.66" width="70.59" height="93.61" style="fill: rgb(255, 255, 255); stroke: rgb(0, 0, 0); stroke-linecap: round; stroke-linejoin: round; transform-origin: 426.555px 127.465px;" id="elnrha96w01d8" class="animable"></rect><rect x="410.68" y="106.42" width="31.73" height="42.08" style="fill: rgb(255, 255, 255); stroke: rgb(0, 0, 0); stroke-linecap: round; stroke-linejoin: round; transform-origin: 426.545px 127.46px;" id="elm6zj1wojwxj" class="animable"></rect></g></g><g id="el9pa31hxg6vt"><g style="opacity: 0.3; transform-origin: 74.415px 120.1px;" class="animable"><rect x="31.94" y="81.21" width="33.38" height="44.26" style="fill: rgb(255, 255, 255); stroke: rgb(0, 0, 0); stroke-linecap: round; stroke-linejoin: round; transform-origin: 48.63px 103.34px;" id="elu8zw88uwg9" class="animable"></rect><rect x="33.86" y="83.75" width="29.54" height="39.17" style="fill: rgb(255, 255, 255); stroke: rgb(0, 0, 0); stroke-linecap: round; stroke-linejoin: round; transform-origin: 48.63px 103.335px;" id="eldgq7wfg4nb" class="animable"></rect><rect x="41.99" y="94.54" width="13.28" height="17.61" style="fill: rgb(255, 255, 255); stroke: rgb(0, 0, 0); stroke-linecap: round; stroke-linejoin: round; transform-origin: 48.63px 103.345px;" id="eli7vbwt71kk" class="animable"></rect><rect x="82.08" y="132.86" width="33.38" height="44.26" style="fill: rgb(255, 255, 255); stroke: rgb(0, 0, 0); stroke-linecap: round; stroke-linejoin: round; transform-origin: 98.77px 154.99px;" id="eljyd8xa0fcvd" class="animable"></rect><rect x="83.99" y="135.41" width="29.54" height="39.17" style="fill: rgb(255, 255, 255); stroke: rgb(0, 0, 0); stroke-linecap: round; stroke-linejoin: round; transform-origin: 98.76px 154.995px;" id="el48s8qrwmquy" class="animable"></rect><rect x="92.12" y="146.19" width="13.28" height="17.61" style="fill: rgb(255, 255, 255); stroke: rgb(0, 0, 0); stroke-linecap: round; stroke-linejoin: round; transform-origin: 98.76px 154.995px;" id="elmzwxmh4du6" class="animable"></rect><g id="eld94j7fewm1t"><rect x="36.52" y="132.86" width="33.38" height="44.26" style="fill: rgb(255, 255, 255); stroke: rgb(0, 0, 0); stroke-linecap: round; stroke-linejoin: round; transform-origin: 53.21px 154.99px; transform: rotate(-90deg);" class="animable"></rect></g><g id="el633x5u1t5bx"><rect x="38.44" y="135.41" width="29.54" height="39.17" style="fill: rgb(255, 255, 255); stroke: rgb(0, 0, 0); stroke-linecap: round; stroke-linejoin: round; transform-origin: 53.21px 154.995px; transform: rotate(-90deg);" class="animable"></rect></g><g id="elxg9us1sg3l"><rect x="46.57" y="146.19" width="13.28" height="17.61" style="fill: rgb(255, 255, 255); stroke: rgb(0, 0, 0); stroke-linecap: round; stroke-linejoin: round; transform-origin: 53.21px 154.995px; transform: rotate(-90deg);" class="animable"></rect></g><rect x="69.16" y="63.08" width="48.59" height="64.44" style="fill: rgb(255, 255, 255); stroke: rgb(0, 0, 0); stroke-linecap: round; stroke-linejoin: round; transform-origin: 93.455px 95.3px;" id="elidbv4y0wef" class="animable"></rect><rect x="71.96" y="66.79" width="43.01" height="57.03" style="fill: rgb(255, 255, 255); stroke: rgb(0, 0, 0); stroke-linecap: round; stroke-linejoin: round; transform-origin: 93.465px 95.305px;" id="elhbyg2k406cc" class="animable"></rect><rect x="83.79" y="82.48" width="19.33" height="25.64" style="fill: rgb(255, 255, 255); stroke: rgb(0, 0, 0); stroke-linecap: round; stroke-linejoin: round; transform-origin: 93.455px 95.3px;" id="el5moznbl24ia" class="animable"></rect></g></g></g><g id="freepik--Device--inject-273" class="animable" style="transform-origin: 250.275px 172.775px;"><rect x="140.82" y="249.73" width="4.47" height="11.37" style="fill: rgb(110, 110, 110); stroke: rgb(38, 50, 56); stroke-linecap: round; stroke-linejoin: round; transform-origin: 143.055px 255.415px;" id="elti1uxl65g" class="animable"></rect><rect x="354.44" y="249.73" width="4.47" height="11.37" style="fill: rgb(110, 110, 110); stroke: rgb(38, 50, 56); stroke-linecap: round; stroke-linejoin: round; transform-origin: 356.675px 255.415px;" id="eldycb0avf8ts" class="animable"></rect><rect x="135.5" y="84.45" width="229.55" height="166.48" style="fill: rgb(110, 110, 110); stroke: rgb(38, 50, 56); stroke-linecap: round; stroke-linejoin: round; transform-origin: 250.275px 167.69px;" id="elwdodrpm72pk" class="animable"></rect><rect x="141.64" y="88.91" width="217.27" height="157.57" style="fill: rgb(38, 50, 56); stroke: rgb(38, 50, 56); stroke-linecap: round; stroke-linejoin: round; transform-origin: 250.275px 167.695px;" id="elvi45g4evngi" class="animable"></rect><polygon points="313.2 221.83 326.86 238.22 327.07 235.49 329.8 234.86 330.01 233.18 332.74 232.33 320.34 215.31 313.2 221.83" style="fill: rgb(224, 224, 224); stroke: rgb(38, 50, 56); stroke-linecap: round; stroke-linejoin: round; transform-origin: 322.97px 226.765px;" id="eltbufbrcn6g" class="animable"></polygon><path d="M320.34,215.31l-7.14,6.52,7.12,8.55,1.07-6.87a38.52,38.52,0,0,0,3-2.7Z" style="fill: rgb(38, 50, 56); stroke: rgb(38, 50, 56); stroke-linecap: round; stroke-linejoin: round; transform-origin: 318.795px 222.845px;" id="el1g1pbp6hjs5" class="animable"></path><path d="M330.43,201.44l14.71,20-2.52,1.89s-2.95,1.89-3.79,2.31a27.33,27.33,0,0,1-2.94,1L334.84,229h-3.57L319.71,210.9s0-1.89,2.31-4.41S330.43,201.44,330.43,201.44Z" style="fill: rgb(224, 224, 224); stroke: rgb(38, 50, 56); stroke-linecap: round; stroke-linejoin: round; transform-origin: 332.425px 215.22px;" id="elb6fjk9ih72s" class="animable"></path><path d="M330.43,201.44s-6.1,2.53-8.41,5.05-2.31,4.41-2.31,4.41l5.65,8.83a20.17,20.17,0,0,0,1.64-2.1c2-3,5.31-1,5.31-1l1.32-5.31A3.71,3.71,0,0,1,336,209Z" style="fill: rgb(38, 50, 56); stroke: rgb(38, 50, 56); stroke-linecap: round; stroke-linejoin: round; transform-origin: 327.855px 210.585px;" id="elzxra9o268q8" class="animable"></path><path d="M314.25,161.73s6.3,8,8.82,13.45,12.19,16.39,14.5,18.28a40.62,40.62,0,0,0,6.94,4s-8.41-4-11.14.63-3.15,11.35-3.15,11.35-5.05-2.1-6.1,1.47-2.73,12.61-2.73,12.61-6.3-2.73-8.19-1.68-6.94,4-6.94,4l-1.89,2.52s-.63-8.61,0-13.24,1.47-14.29,3.78-24.58S314.25,161.73,314.25,161.73Z" style="fill: rgb(57, 27, 133); stroke: rgb(38, 50, 56); stroke-linecap: round; stroke-linejoin: round; transform-origin: 324.3px 195.045px;" id="elvpvidi9getn" class="animable"></path><path d="M315.3,188l13,14.71s-7.57-15.55-8.2-18.92-1.68-4.62-.42-7.56a30.46,30.46,0,0,1,2.05-3.56A103.77,103.77,0,0,0,314.49,162l-.37.32c-.67,3.27-3.9,19-6,28.17a242.07,242.07,0,0,0-3.74,24.32c1-2.3,2.43-5.55,3.32-7.09,1.47-2.52,8.41,5.46,8.41,5.46s-5.46-10.29-5-13.45S315.3,188,315.3,188Z" style="fill: rgb(38, 50, 56); stroke: rgb(38, 50, 56); stroke-linecap: round; stroke-linejoin: round; transform-origin: 316.34px 188.405px;" id="elchfnlup6z4e" class="animable"></path><path d="M244.48,142.4s-17-.63-25.84-4.42-27.32-15.54-38.67-5.46-25.84,75-24.37,84.47,11.77,13.45,20,15.76,4,.84,4,.84L178.5,246H305.21l1.05-20.17s1.05-18.49,3.16-24.8,7.14-22.48,6.93-31.52,0-21.22-7.36-25.42-12.39-4.83-19.12-4.2-28.79-.21-31.94,0S244.48,142.4,244.48,142.4Z" style="fill: rgb(57, 27, 133); stroke: rgb(38, 50, 56); stroke-linecap: round; stroke-linejoin: round; transform-origin: 235.926px 187.266px;" id="elkjb1arqo60s" class="animable"></path><path d="M316.35,169.5c-.05-2.24-.08-4.69-.2-7.16l-1.06-2.71s-4.2,12.19-5,13S309,160.89,309,160.89l-3.15,5.25s.63-9.24.42-12.19-5.25-6.09-6.09-6.51-34.13-5-40.14,1.05-14.49,8.83-16.6,9a48.21,48.21,0,0,0-6.3,1.47,59.93,59.93,0,0,0-.21,7.56c.21,2.94.21,11.77.21,11.77a37,37,0,0,1-3.78-6.51c-2.52-5-6.52-12.19-6.52-12.82a124.38,124.38,0,0,0-1.47,14.08,21.48,21.48,0,0,1-.63,6.09s-5.46-7.77-7.56-12.4-5.26-11.34-5.26-11.34l-.42,18.7-5.88-16s2.73,19.54,1.89,22.69-1.47,4.83-2.1,5.05-2.94-8.2-6.93-13.87-7.15-7.15-7.15-7.15,5.46,10.3,6.09,15.34-1,6.52-2.31,6.73-11.13-.63-17.86.21a54.52,54.52,0,0,0-13,3.57s17.66-1.89,20.81,0l2.64,1.58c-.5.05-1.45.65-3.27,3-3.37,4.41-7.36,11.14-6.52,14.71s1.68,6.09,1,6.51S173,225,173,225l10.51-.63-4.21,2.73,5.89-1.05s-.63.63.84,2.31,6.51,4.83,6.51,4.83l2.73,1.27-9.66.42s2.31,1.89,7.35,2.52,5.68,1.05,6.31,1.05c.44,0,.26,4.72.12,7.56H305.21l1.05-20.17s1.05-18.49,3.16-24.8S316.56,178.54,316.35,169.5Z" style="fill: rgb(38, 50, 56); stroke: rgb(38, 50, 56); stroke-linecap: round; stroke-linejoin: round; transform-origin: 240.303px 195.697px;" id="elqpp51985sa" class="animable"></path><path d="M220.08,178.9l7.61,8.7s7.35,3,10.06,3,6,1.36,6.26,5.17-.55,9,0,12,3.26,8.43,2.44,10.06a5.35,5.35,0,0,1-6.25,2.72c-3.26-.82-5.16.54-6.25-5.44s-1.63-7.88-1.63-7.88-4.35,4.62-6.53,5.71-4.89-.55-8.7,1.63A41.3,41.3,0,0,0,207.3,223c-3,3.26-7.61,4.62-9.24,6a41.79,41.79,0,0,0-4.62,5.71s-7.61-3-5.71-6.26,0-3,1.36-4.89-3-13.87-1.9-14.14,5.43-.27,5.43-4.62-3-10.06-3-11.15,5.71-12,7.34-7.61,6,7.89,8.43,7.34,3-6.52,2.72-10.87,4.62-6,6.25-6.53S220.08,178.9,220.08,178.9Z" style="fill: rgb(207, 207, 207); stroke: rgb(38, 50, 56); stroke-linecap: round; stroke-linejoin: round; transform-origin: 216.807px 205.317px;" id="elci4ygzuhqrv" class="animable"></path><path d="M200.1,213s3.82,2.92,6.3-2.7,5.85-9.23,10.8-10.8a83,83,0,0,0,11.25-5,27.2,27.2,0,0,1-4.72,6.3c-2.7,2.47-6.08,4.95-6.3,6.3s0,.67,5.4,0l5.4-.68s-1.8,3.15-3.6,3.6-8.78,1.58-11.71,3.83-4.61,4.89-7.42,7.65-12.6,7.2-12.6.45S194.25,213.21,200.1,213Z" style="fill: rgb(38, 50, 56); stroke: rgb(38, 50, 56); stroke-linecap: round; stroke-linejoin: round; transform-origin: 210.675px 210.003px;" id="eljxnfw5btcyh" class="animable"></path><path d="M232.32,207.18s-3-9,1.63-11.69" style="fill: none; stroke: rgb(38, 50, 56); stroke-linecap: round; stroke-linejoin: round; transform-origin: 232.657px 201.335px;" id="elnodn8t3ptkd" class="animable"></path><path d="M244.55,210.71s-2.17,0-1.9,1.63,1.63,5.71,1.63,5.71" style="fill: none; stroke: rgb(38, 50, 56); stroke-linecap: round; stroke-linejoin: round; transform-origin: 243.588px 214.38px;" id="elwnbyks2nix" class="animable"></path><path d="M216.55,167.21s-9.79-.81-11.42,2.45-.54,7.34,1.09,10.06,1.9,6.25,2.72,10.06,1.08,7.88,2.44,8.15a11.58,11.58,0,0,0,6.8-.27c3.53-1.09,4.35-3,4.35-5.43s-.82-7.35-.82-9.25-1.08-6.52-1.36-10.33A6.94,6.94,0,0,0,216.55,167.21Z" style="fill: rgb(207, 207, 207); stroke: rgb(38, 50, 56); stroke-linecap: round; stroke-linejoin: round; transform-origin: 213.427px 182.718px;" id="el3f96u1o71wd" class="animable"></path><path d="M220.35,186.52a7.93,7.93,0,0,0-5.7-.55c-3.54.82-3.54,2.72-3.54,5.44v2.72" style="fill: none; stroke: rgb(38, 50, 56); stroke-linecap: round; stroke-linejoin: round; transform-origin: 215.73px 189.903px;" id="elm3tn5vbp199" class="animable"></path><line x1="218.18" y1="197.66" x2="217.09" y2="193.04" style="fill: none; stroke: rgb(38, 50, 56); stroke-linecap: round; stroke-linejoin: round; transform-origin: 217.635px 195.35px;" id="el2apelyf2bx3" class="animable"></line><line x1="213.83" y1="197.12" x2="213.56" y2="195.22" style="fill: none; stroke: rgb(38, 50, 56); stroke-linecap: round; stroke-linejoin: round; transform-origin: 213.695px 196.17px;" id="elzt4k8rok41k" class="animable"></line><path d="M198.61,190.32s.27-.54-1.64-4.35a5.75,5.75,0,0,0-9.78-1.09c-3,3.54-3.54,4.63-1.63,7.07s5.16,4.35,5.7,6.26,3,7.06,5.71,8.7,4.9,1.36,6.8-1.09,1.09-4.9,0-9S198.61,190.32,198.61,190.32Z" style="fill: rgb(207, 207, 207); stroke: rgb(38, 50, 56); stroke-linecap: round; stroke-linejoin: round; transform-origin: 194.677px 195.287px;" id="el2putfqijbi4" class="animable"></path><path d="M197.52,204.73s-2.18-2.72-1.63-4.35,4.07-3.81,5.43-2.72" style="fill: none; stroke: rgb(38, 50, 56); stroke-linecap: round; stroke-linejoin: round; transform-origin: 198.561px 201.048px;" id="eljxbt0hwwdx" class="animable"></path><path d="M185,207.72s-5.16-1.36-6,4.89.82,8.7,2.72,9.52,5.71,0,7.34,1.36,4.35,2.45,9,3.26,4.35-1.9,5.44-6-2.18-4.35-3.81-5.16a12.85,12.85,0,0,1-4.35-2.72C193.71,211.26,188.55,207.45,185,207.72Z" style="fill: rgb(207, 207, 207); stroke: rgb(38, 50, 56); stroke-linecap: round; stroke-linejoin: round; transform-origin: 191.247px 217.244px;" id="elixna78z826" class="animable"></path><path d="M195.89,223.76a6.4,6.4,0,0,1,1.63-7.61" style="fill: none; stroke: rgb(38, 50, 56); stroke-linecap: round; stroke-linejoin: round; transform-origin: 196.397px 219.955px;" id="el9x4l30p99" class="animable"></path><line x1="202.68" y1="224.31" x2="198.88" y2="224.58" style="fill: none; stroke: rgb(38, 50, 56); stroke-linecap: round; stroke-linejoin: round; transform-origin: 200.78px 224.445px;" id="el2kg83ogel3r" class="animable"></line><path d="M185.28,225.39s-3.26.55-2.71,4.35,3,5.71,4.07,7.34,6,5.44,8.16,6,4.35-.27,4.08-4.07-3-5.71-3.81-7.34-2.17-2.72-3.26-4.35S188.55,223.22,185.28,225.39Z" style="fill: rgb(207, 207, 207); stroke: rgb(38, 50, 56); stroke-linecap: round; stroke-linejoin: round; transform-origin: 190.705px 233.888px;" id="elx5tle579nud" class="animable"></path><path d="M197.52,236.27a3.54,3.54,0,0,0-4.08-1.63c-2.72.81-4.35,2.71-3.53,4.35s4.89,4.07,4.89,4.07" style="fill: none; stroke: rgb(38, 50, 56); stroke-linecap: round; stroke-linejoin: round; transform-origin: 193.609px 238.776px;" id="elf362h9n0gk6" class="animable"></path><path d="M195.73,136.72a23.08,23.08,0,0,1,9.88,16.18S206.24,138,195.73,136.72Z" style="fill: rgb(38, 50, 56); stroke: rgb(38, 50, 56); stroke-linecap: round; stroke-linejoin: round; transform-origin: 200.674px 144.81px;" id="eltpcpywi31th" class="animable"></path><path d="M195.94,145.55s4,4.2,5.05,6.3S200.78,146.6,195.94,145.55Z" style="fill: rgb(38, 50, 56); stroke: rgb(38, 50, 56); stroke-linecap: round; stroke-linejoin: round; transform-origin: 198.637px 148.888px;" id="el5bp2qbzyjba" class="animable"></path><path d="M241.58,146.42s-.54-6-4.33-1.9-2.7,12.18-1.89,16.24,4.87,7.84,4.87,7.84,1.08,8.12,1.89,12.17,6.69,15.93,8.58,19.18,8.25,11.12,12.81,11.92c6.06,1.07,11.89-2.15,13.78-4.31s7-10,11.09-14.61,8.12-14.61,8.12-14.61,7.3-14.61,7-18.4a7.54,7.54,0,0,0-2.43-5.41s3.52-11.9,3.52-20.56-7.85-19.75-14.88-23-22.19-6.23-31.66.27-13.79,15.42-14.61,20S241.58,146.42,241.58,146.42Z" style="fill: rgb(207, 207, 207); stroke: rgb(38, 50, 56); stroke-linecap: round; stroke-linejoin: round; transform-origin: 269.578px 159.731px;" id="ela0qygeeqg" class="animable"></path><path d="M300.83,157a16.38,16.38,0,0,1-.54,6.76c-1.09,3.79-3.79,5.41-3.79,10s-3,11.09-3,11.09" style="fill: none; stroke: rgb(38, 50, 56); stroke-linecap: round; stroke-linejoin: round; transform-origin: 297.233px 170.925px;" id="elajs5rr6lqji" class="animable"></path><path d="M279.18,161.84l16.51-.54a8.77,8.77,0,0,1-3,8.65C288.38,173.47,278.64,169.41,279.18,161.84Z" style="fill: rgb(38, 50, 56); stroke: rgb(38, 50, 56); stroke-linecap: round; stroke-linejoin: round; transform-origin: 287.525px 166.266px;" id="elhrkbk41kwp4" class="animable"></path><path d="M272.85,161.1,254,154.53s-1.76,8.73,3.7,12C265.71,171.4,272.31,162.45,272.85,161.1Z" style="fill: rgb(38, 50, 56); stroke: rgb(38, 50, 56); stroke-linecap: round; stroke-linejoin: round; transform-origin: 263.29px 161.249px;" id="elj5cf6liccs" class="animable"></path><path d="M272,171.61s-5.67,5.46-3.36,6.3a5,5,0,0,0,4.41-.84s2.31,4.2,4.2,2.94.85-6.93-.42-8.61A2.93,2.93,0,0,0,272,171.61Z" style="fill: rgb(38, 50, 56); stroke: rgb(38, 50, 56); stroke-linecap: round; stroke-linejoin: round; transform-origin: 273.186px 175.238px;" id="el6iz3mzhcdrj" class="animable"></path><path d="M279.37,197.66a15.69,15.69,0,0,1-4.64,4.85A28,28,0,0,1,271,204.8c-2.52,1.27-9.67-1.88-11.14-3.36a13.13,13.13,0,0,1-2.1-4.57c-.8-2.64-1.3-5.75-.84-7.62a8.19,8.19,0,0,1,4.11-4.79,7.72,7.72,0,0,1,5.56-.88l10.27,2.57a3.82,3.82,0,0,1,2.83,3.09c0,.18.06.38.09.59C280.11,192.35,280.36,195.81,279.37,197.66Z" style="fill: rgb(38, 50, 56); stroke: rgb(38, 50, 56); stroke-linecap: round; stroke-linejoin: round; transform-origin: 268.408px 194.248px;" id="elar73cyfd0l" class="animable"></path><path d="M271,204.8a28,28,0,0,0,3.77-2.29,18.32,18.32,0,0,0,3.81-3.58c-.05-2.48-1.2-3.13-2.54-.85-1.47,2.52-2.94,2.94-5.25,2.94s-7.35-1.05-8.82-3.36-.42-4.41-2.32-5.46-2.1,1.68-2.1,1.68-.09.55-.22,1.39c.13.54.27,1.08.43,1.6a13.13,13.13,0,0,0,2.1,4.57C261.29,202.92,268.44,206.07,271,204.8Z" style="fill: rgb(255, 255, 255); stroke: rgb(38, 50, 56); stroke-linecap: round; stroke-linejoin: round; transform-origin: 267.955px 198.527px;" id="elfrcl4i65u5i" class="animable"></path><path d="M279.88,190.89c-.05-.37-.09-.72-.14-1.06s-.06-.41-.09-.59a3.82,3.82,0,0,0-2.83-3.09l-10.27-2.57a7.72,7.72,0,0,0-5.56.88,9.31,9.31,0,0,0-1.56,1.06c1,.93,3.84,3.08,9.64,4.37A39.69,39.69,0,0,0,279.88,190.89Z" style="fill: rgb(255, 255, 255); stroke: rgb(38, 50, 56); stroke-linecap: round; stroke-linejoin: round; transform-origin: 269.655px 187.165px;" id="elo45wc5rc8l" class="animable"></path><path d="M269.49,167s-2.1,2.52-7.56,4.21-9.25-.42-9.88-2.95" style="fill: none; stroke: rgb(38, 50, 56); stroke-linecap: round; stroke-linejoin: round; transform-origin: 260.77px 169.409px;" id="el0pzwdhdvqksc" class="animable"></path><path d="M280,169.08s2,5.43,9.24,5" style="fill: none; stroke: rgb(38, 50, 56); stroke-linecap: round; stroke-linejoin: round; transform-origin: 284.62px 171.592px;" id="elw9e9aygr26j" class="animable"></path><path d="M275,160.05c.63-.21.63-.42.63-2.73s-3.78-4.42-5.46-5.68" style="fill: none; stroke: rgb(38, 50, 56); stroke-linecap: round; stroke-linejoin: round; transform-origin: 272.9px 155.845px;" id="elhhnlpgyr4n" class="animable"></path><path d="M277.26,159.63a4.61,4.61,0,0,1,1.27-2.73c1.26-1.47,9.24-3,9.87-3" style="fill: none; stroke: rgb(38, 50, 56); stroke-linecap: round; stroke-linejoin: round; transform-origin: 282.83px 156.765px;" id="ely5ragfpx7cr" class="animable"></path><path d="M265.92,173.5a51.87,51.87,0,0,1-6.1,3.36c-3.57,1.68-7.56,1-7.56,8.82" style="fill: none; stroke: rgb(38, 50, 56); stroke-linecap: round; stroke-linejoin: round; transform-origin: 259.09px 179.59px;" id="elhsi8u1ko32" class="animable"></path><path d="M280,177.07a27,27,0,0,0,3.36,6.09c1.89,2.31,1.26,6.1,0,10.3" style="fill: none; stroke: rgb(38, 50, 56); stroke-linecap: round; stroke-linejoin: round; transform-origin: 282.276px 185.265px;" id="elwsk6xsf2ne9" class="animable"></path><path d="M295.13,176s-.63,1.68-4,2.31-6.51.42-6.3,3.57" style="fill: none; stroke: rgb(38, 50, 56); stroke-linecap: round; stroke-linejoin: round; transform-origin: 289.975px 178.94px;" id="el018bbfr1aqn7i" class="animable"></path><path d="M247.22,166.14s.42,4,3.15,5.68,4.83,2.31,3.57,4.41" style="fill: none; stroke: rgb(38, 50, 56); stroke-linecap: round; stroke-linejoin: round; transform-origin: 250.767px 171.185px;" id="elrq44t27l41h" class="animable"></path><path d="M249.32,152.06a3.45,3.45,0,0,1,0-3.78c1.26-2.1,2.31-5.88,1.89-11.56" style="fill: none; stroke: rgb(38, 50, 56); stroke-linecap: round; stroke-linejoin: round; transform-origin: 250.03px 144.39px;" id="els0e5srd5a4p" class="animable"></path><path d="M240.22,164.29s2.53-5.89,1.26-9.46-3.87-9.22-3.87-9.22-1.37,4.13-.47,6.12S239,155.9,239,155.9s-3.45.54-2.54,3.08,1.09-.18,2-.36S240.22,164.29,240.22,164.29Z" style="fill: rgb(38, 50, 56); stroke: rgb(38, 50, 56); stroke-linecap: round; stroke-linejoin: round; transform-origin: 239.072px 154.95px;" id="elmbh0dprpg1" class="animable"></path><path d="M252.26,120.12s4.62,4.84,14.92,6.94" style="fill: none; stroke: rgb(38, 50, 56); stroke-linecap: round; stroke-linejoin: round; transform-origin: 259.72px 123.59px;" id="elr2xb71hzm6" class="animable"></path><path d="M281.05,128.11a46.74,46.74,0,0,0,20,.42" style="fill: none; stroke: rgb(38, 50, 56); stroke-linecap: round; stroke-linejoin: round; transform-origin: 291.05px 128.761px;" id="ela7upbgx2nyg" class="animable"></path><line x1="256.67" y1="119.7" x2="253.31" y2="124.75" style="fill: none; stroke: rgb(38, 50, 56); stroke-linecap: round; stroke-linejoin: round; transform-origin: 254.99px 122.225px;" id="el7bdnjaok1a" class="animable"></line><line x1="263.82" y1="122.44" x2="261.72" y2="127.69" style="fill: none; stroke: rgb(38, 50, 56); stroke-linecap: round; stroke-linejoin: round; transform-origin: 262.77px 125.065px;" id="el57fyv0oanet" class="animable"></line><line x1="283.36" y1="125.38" x2="282.73" y2="131.26" style="fill: none; stroke: rgb(38, 50, 56); stroke-linecap: round; stroke-linejoin: round; transform-origin: 283.045px 128.32px;" id="el482hp1jclv6" class="animable"></line><line x1="293.02" y1="125.8" x2="292.81" y2="134.2" style="fill: none; stroke: rgb(38, 50, 56); stroke-linecap: round; stroke-linejoin: round; transform-origin: 292.915px 130px;" id="elbm0rps8wpoj" class="animable"></line><path d="M263.19,142s5.46,2.52,9.45,4.2,11.56,1.26,16.18.84" style="fill: none; stroke: rgb(38, 50, 56); stroke-linecap: round; stroke-linejoin: round; transform-origin: 276.005px 144.708px;" id="elp6rrgaughq" class="animable"></path><path d="M291.76,142.61s-10.5.21-13,0" style="fill: none; stroke: rgb(38, 50, 56); stroke-linecap: round; stroke-linejoin: round; transform-origin: 285.26px 142.657px;" id="elkeivrh8f22c" class="animable"></path><line x1="262.77" y1="135.88" x2="271.8" y2="139.25" style="fill: none; stroke: rgb(38, 50, 56); stroke-linecap: round; stroke-linejoin: round; transform-origin: 267.285px 137.565px;" id="el7pnl9totz7h" class="animable"></line><path d="M265.5,161.83a2.42,2.42,0,1,1-2.42-2.41A2.42,2.42,0,0,1,265.5,161.83Z" style="fill: rgb(57, 27, 133); stroke: rgb(38, 50, 56); stroke-linecap: round; stroke-linejoin: round; transform-origin: 263.08px 161.84px;" id="elvh1qi39ig9" class="animable"></path><circle cx="286.93" cy="165.09" r="2.42" style="fill: rgb(57, 27, 133); stroke: rgb(38, 50, 56); stroke-linecap: round; stroke-linejoin: round; transform-origin: 286.93px 165.09px;" id="eldqd2bx3i47u" class="animable"></circle><path d="M257.29,203.51s2.31,3.2,7.83,3.91a22.9,22.9,0,0,0,9.61-.71s-4.63,4.07-9.61,3.28S257.29,203.51,257.29,203.51Z" style="fill: rgb(38, 50, 56); stroke: rgb(38, 50, 56); stroke-linecap: round; stroke-linejoin: round; transform-origin: 266.01px 206.801px;" id="elfex2wml3abn" class="animable"></path><path d="M262,183.41a3.22,3.22,0,0,1-1.14-2.77" style="fill: none; stroke: rgb(38, 50, 56); stroke-linecap: round; stroke-linejoin: round; transform-origin: 261.423px 182.025px;" id="elz2z29gmk2r" class="animable"></path><line x1="271.49" y1="184.56" x2="271.65" y2="182.11" style="fill: none; stroke: rgb(38, 50, 56); stroke-linecap: round; stroke-linejoin: round; transform-origin: 271.57px 183.335px;" id="elkgjbkl3dmer" class="animable"></line><path d="M279.32,187.17a7.08,7.08,0,0,0,1.63-1.64" style="fill: none; stroke: rgb(38, 50, 56); stroke-linecap: round; stroke-linejoin: round; transform-origin: 280.135px 186.35px;" id="elmuj6oelpy7" class="animable"></path><path d="M257.72,196.87s-1.89,1.39-1.89,2.37" style="fill: none; stroke: rgb(38, 50, 56); stroke-linecap: round; stroke-linejoin: round; transform-origin: 256.775px 198.055px;" id="elmspdym2rv5" class="animable"></path><line x1="262.52" y1="203.31" x2="262.03" y2="204.94" style="fill: none; stroke: rgb(38, 50, 56); stroke-linecap: round; stroke-linejoin: round; transform-origin: 262.275px 204.125px;" id="el9g5pvepe8pe" class="animable"></line><line x1="274.73" y1="202.51" x2="274.59" y2="205.43" style="fill: none; stroke: rgb(38, 50, 56); stroke-linecap: round; stroke-linejoin: round; transform-origin: 274.66px 203.97px;" id="eljrw7vs3rvw8" class="animable"></line><path d="M213.67,99.83H152.21a2,2,0,0,1-2-2h0a2,2,0,0,1,2-2h61.46a2,2,0,0,1,2,2h0A2,2,0,0,1,213.67,99.83Z" style="fill: rgb(110, 110, 110); stroke: rgb(38, 50, 56); stroke-linecap: round; stroke-linejoin: round; transform-origin: 182.94px 97.83px;" id="el9rsrxytw4gv" class="animable"></path><path d="M171.87,95.76H152.21a2,2,0,1,0,0,4.07h19.66Z" style="fill: rgb(57, 27, 133); stroke: rgb(38, 50, 56); stroke-linecap: round; stroke-linejoin: round; transform-origin: 161.023px 97.795px;" id="el7df7z2ioy1r" class="animable"></path></g><g id="freepik--Furniture--inject-273" class="animable" style="transform-origin: 251.055px 344.265px;"><rect x="54.48" y="270.45" width="393.15" height="156.37" style="fill: rgb(207, 207, 207); stroke: rgb(38, 50, 56); stroke-linecap: round; stroke-linejoin: round; transform-origin: 251.055px 348.635px;" id="elz3eyh644t2r" class="animable"></rect><rect x="54.48" y="270.45" width="393.15" height="6.32" style="fill: rgb(38, 50, 56); stroke: rgb(38, 50, 56); stroke-linecap: round; stroke-linejoin: round; transform-origin: 251.055px 273.61px;" id="el21w75zfa2jy" class="animable"></rect><rect x="190.96" y="283.3" width="120.18" height="134.4" style="fill: rgb(207, 207, 207); stroke: rgb(38, 50, 56); stroke-linecap: round; stroke-linejoin: round; transform-origin: 251.05px 350.5px;" id="elwpdw8r7p5an" class="animable"></rect><rect x="195.95" y="288.88" width="110.2" height="123.23" style="fill: rgb(207, 207, 207); stroke: rgb(38, 50, 56); stroke-linecap: round; stroke-linejoin: round; transform-origin: 251.05px 350.495px;" id="el22ihwfd7cdh" class="animable"></rect><line x1="251.05" y1="289.02" x2="251.05" y2="412.49" style="fill: rgb(255, 255, 255); stroke: rgb(38, 50, 56); stroke-linecap: round; stroke-linejoin: round; transform-origin: 251.05px 350.755px;" id="elm1mhrcwg6a" class="animable"></line><rect x="60.71" y="366.1" width="122.74" height="51.38" style="fill: rgb(161, 161, 161); stroke: rgb(38, 50, 56); stroke-linecap: round; stroke-linejoin: round; transform-origin: 122.08px 391.79px;" id="elw2x39qqvu2r" class="animable"></rect><rect x="60.71" y="280.4" width="122.74" height="51.38" style="fill: rgb(161, 161, 161); stroke: rgb(38, 50, 56); stroke-linecap: round; stroke-linejoin: round; transform-origin: 122.08px 306.09px;" id="elhlvg5lmaxdc" class="animable"></rect><rect x="319.9" y="280.4" width="122.74" height="65.42" style="fill: rgb(161, 161, 161); stroke: rgb(38, 50, 56); stroke-linecap: round; stroke-linejoin: round; transform-origin: 381.27px 313.11px;" id="el6dtvw1reacg" class="animable"></rect><rect x="319.9" y="352.05" width="122.74" height="65.42" style="fill: rgb(207, 207, 207); stroke: rgb(38, 50, 56); stroke-linecap: round; stroke-linejoin: round; transform-origin: 381.27px 384.76px;" id="el3ye06z7akr9" class="animable"></rect><rect x="363.49" y="381.03" width="35.56" height="7.47" style="fill: rgb(38, 50, 56); stroke: rgb(38, 50, 56); stroke-linecap: round; stroke-linejoin: round; transform-origin: 381.27px 384.765px;" id="elgojda2dr776" class="animable"></rect><rect x="103.37" y="345.2" width="35.56" height="7.47" style="fill: rgb(38, 50, 56); stroke: rgb(38, 50, 56); stroke-linecap: round; stroke-linejoin: round; transform-origin: 121.15px 348.935px;" id="elb1ysqwkfuns" class="animable"></rect><rect x="47.12" y="261.71" width="407.87" height="10.32" style="fill: rgb(207, 207, 207); stroke: rgb(38, 50, 56); stroke-linecap: round; stroke-linejoin: round; transform-origin: 251.055px 266.87px;" id="elw62dy8cxg98" class="animable"></rect><rect x="329.94" y="325.82" width="99.41" height="20.01" style="fill: rgb(38, 50, 56); stroke: rgb(38, 50, 56); stroke-linecap: round; stroke-linejoin: round; transform-origin: 379.645px 335.825px;" id="eljmjce45q0zk" class="animable"></rect><path d="M424.67,339.11c0-.72-20.51-1.3-45.8-1.3s-45.8.58-45.8,1.3,20.51,1.31,45.8,1.31S424.67,339.83,424.67,339.11Z" style="fill: rgb(207, 207, 207); stroke: rgb(38, 50, 56); stroke-linecap: round; stroke-linejoin: round; transform-origin: 378.87px 339.115px;" id="eleb41rgkawbc" class="animable"></path><rect x="62.05" y="283.81" width="10.08" height="47.64" style="fill: rgb(207, 207, 207); stroke: rgb(38, 50, 56); stroke-linecap: round; stroke-linejoin: round; transform-origin: 67.09px 307.63px;" id="el980ouxi92m" class="animable"></rect><rect x="73.7" y="283.81" width="10.08" height="47.64" style="fill: rgb(207, 207, 207); stroke: rgb(38, 50, 56); stroke-linecap: round; stroke-linejoin: round; transform-origin: 78.74px 307.63px;" id="eliqgb6yk219m" class="animable"></rect><rect x="172.5" y="283.81" width="10.08" height="47.64" style="fill: rgb(207, 207, 207); stroke: rgb(38, 50, 56); stroke-linecap: round; stroke-linejoin: round; transform-origin: 177.54px 307.63px;" id="elel1gzt07pnq" class="animable"></rect><rect x="161.86" y="283.81" width="10.08" height="47.64" style="fill: rgb(207, 207, 207); stroke: rgb(38, 50, 56); stroke-linecap: round; stroke-linejoin: round; transform-origin: 166.9px 307.63px;" id="elwyqwpje7m3" class="animable"></rect><rect x="151.22" y="283.81" width="10.08" height="47.64" style="fill: rgb(207, 207, 207); stroke: rgb(38, 50, 56); stroke-linecap: round; stroke-linejoin: round; transform-origin: 156.26px 307.63px;" id="el90ckvdjolf9" class="animable"></rect><rect x="140.58" y="283.81" width="10.08" height="47.64" style="fill: rgb(207, 207, 207); stroke: rgb(38, 50, 56); stroke-linecap: round; stroke-linejoin: round; transform-origin: 145.62px 307.63px;" id="el1dd4vw7h4j7" class="animable"></rect><rect x="129.94" y="283.81" width="10.08" height="47.64" style="fill: rgb(207, 207, 207); stroke: rgb(38, 50, 56); stroke-linecap: round; stroke-linejoin: round; transform-origin: 134.98px 307.63px;" id="el315d0nnxcke" class="animable"></rect><g id="el19yteoyrw33"><rect x="91.01" y="283.81" width="10.08" height="47.64" style="fill: rgb(207, 207, 207); stroke: rgb(38, 50, 56); stroke-linecap: round; stroke-linejoin: round; transform-origin: 96.05px 307.63px; transform: rotate(-15.87deg);" class="animable"></rect></g></g><g id="freepik--Hands--inject-273" class="animable" style="transform-origin: 263.815px 384.686px;"><path d="M140.14,465.79s22.29-34.17,26.37-47.9.87-33.26-.37-45.63S171,328.61,171,328.61s-5.56-21.64-2.47-23.5,14-2.59,18.42-4.08,7.05-1.11,11,.87a30.55,30.55,0,0,1,5.69,3.46l-2.72,4.2-10.39,2.23,6.68,34.87s20.28,5.2,21.27,6.93.12,9-2,15.08-1.11,10.27-4.82,11.5-5.94,2-6.31.87-5.07,18.18-8.41,24.24a84.43,84.43,0,0,0-5.68,13.85s-5.73,56.67-4.87,58" style="fill: rgb(255, 255, 255); stroke: rgb(38, 50, 56); stroke-linecap: round; stroke-linejoin: round; transform-origin: 179.514px 388.626px;" id="el2x54w9y3xvq" class="animable"></path><path d="M190.16,317.28s-9-2.85-10.3-4.1a12.76,12.76,0,0,0,2.18,6.53c2.18,3.18,1.84,9.71,1.84,9.71l12.9,24.45,7.84,28.75c.39-1.18.65-1.81.72-1.58.37,1.11,2.6.37,6.31-.87s2.72-5.44,4.82-11.5a47.68,47.68,0,0,0,2.17-9.33v-5.26a3,3,0,0,0-.19-.49c-1-1.73-21.27-6.93-21.27-6.93L192,319.45Z" style="fill: rgb(38, 50, 56); stroke: rgb(38, 50, 56); stroke-linecap: round; stroke-linejoin: round; transform-origin: 199.25px 347.9px;" id="elizxlg1ej1tt" class="animable"></path><line x1="204.16" y1="366.75" x2="207.96" y2="358.86" style="fill: none; stroke: rgb(38, 50, 56); stroke-linecap: round; stroke-linejoin: round; transform-origin: 206.06px 362.805px;" id="el5hlwshowny5" class="animable"></line><path d="M176.51,311.07a30.71,30.71,0,0,0,9.14,5.28" style="fill: none; stroke: rgb(38, 50, 56); stroke-linecap: round; stroke-linejoin: round; transform-origin: 181.08px 313.71px;" id="elev77h3g8qkq" class="animable"></path><path d="M387.49,435.86s-40.41-36-41.17-37.45-18.82-47.11-21.95-54.82-8.48-9.33-11-12.71-8-18-9.41-24.83.09-12.46-13-12.63-6.78-1.69-11.36-1-6.44,5.26-6.44,5.26l12.87-1.6,2.47,1c2.47,1,2.63,4.5,2.63,4.5s2.29,23.81,2.71,28.47S297,354.79,297,354.79s-16.29-5.69-17.65-6.37-5.93,5.08-7.37,10.08,2.37,8,5.93,12.71,9.83,4.92,9.83,4.92L315,405.19,347.54,467" style="fill: rgb(255, 255, 255); stroke: rgb(38, 50, 56); stroke-linecap: round; stroke-linejoin: round; transform-origin: 329.579px 379.621px;" id="eleq51clzlw1s" class="animable"></path><path d="M296.6,334.27a56.58,56.58,0,0,1-3.36-10.87c.28,3,.51,5.44.62,6.63.39,4.24,2.69,21.28,3.1,24.3.86-.53,1.57-.88,1.57-.88a16.86,16.86,0,0,0,1.42-6.61C300,342.9,299.2,339.55,296.6,334.27Z" style="fill: rgb(38, 50, 56); stroke: rgb(38, 50, 56); stroke-linecap: round; stroke-linejoin: round; transform-origin: 296.596px 338.865px;" id="elwui62ysyjp" class="animable"></path><path d="M295.93,372.46c.34-1.51-1.93-13.31-2.18-14.91-.14-.89,1.39-2.07,2.75-2.94-2.77-1-15.92-5.59-17.13-6.19s-5.93,5.08-7.37,10.08,2.37,8,5.93,12.71,9.83,4.92,9.83,4.92l1.22,1.3C292.6,375.21,295.79,373.1,295.93,372.46Z" style="fill: rgb(38, 50, 56); stroke: rgb(38, 50, 56); stroke-linecap: round; stroke-linejoin: round; transform-origin: 284.094px 362.903px;" id="elymk1tjoola" class="animable"></path><path d="M290.72,299.78,296,346.57a4.22,4.22,0,0,1-3.72,4.66l-96.8,10.89a4.23,4.23,0,0,1-4.67-3.72l-5.26-46.79a4.22,4.22,0,0,1,3.73-4.67l96.79-10.88A4.22,4.22,0,0,1,290.72,299.78Z" style="fill: rgb(57, 27, 133); stroke: rgb(38, 50, 56); stroke-linecap: round; stroke-linejoin: round; transform-origin: 240.775px 329.091px;" id="el8xit04kqond" class="animable"></path><g id="ell25ow5xpsp"><rect x="201.87" y="316.57" width="10.99" height="11.45" style="fill: rgb(38, 50, 56); stroke: rgb(38, 50, 56); stroke-linecap: round; stroke-linejoin: round; transform-origin: 207.365px 322.295px; transform: rotate(-6.42deg);" class="animable"></rect></g><g id="elnas0a0d3uvc"><rect x="204.38" y="338.86" width="10.99" height="11.45" style="fill: rgb(38, 50, 56); stroke: rgb(38, 50, 56); stroke-linecap: round; stroke-linejoin: round; transform-origin: 209.875px 344.585px; transform: rotate(-6.42deg);" class="animable"></rect></g><g id="el0hi3f9jdtzot"><rect x="191.75" y="329.2" width="11.45" height="10.99" style="fill: rgb(38, 50, 56); stroke: rgb(38, 50, 56); stroke-linecap: round; stroke-linejoin: round; transform-origin: 197.475px 334.695px; transform: rotate(-6.42deg);" class="animable"></rect></g><g id="el3002t5wsk6a"><rect x="214.04" y="326.69" width="11.45" height="10.99" style="fill: rgb(38, 50, 56); stroke: rgb(38, 50, 56); stroke-linecap: round; stroke-linejoin: round; transform-origin: 219.765px 332.185px; transform: rotate(-6.42deg);" class="animable"></rect></g><path d="M268.52,337.43a7.5,7.5,0,1,0-6.61,8.29A7.5,7.5,0,0,0,268.52,337.43Z" style="fill: rgb(38, 50, 56); stroke: rgb(38, 50, 56); stroke-linecap: round; stroke-linejoin: round; transform-origin: 261.067px 338.268px;" id="elu0fn95uye3" class="animable"></path><path d="M287.81,307.48a7.5,7.5,0,1,0-6.62,8.3A7.51,7.51,0,0,0,287.81,307.48Z" style="fill: rgb(38, 50, 56); stroke: rgb(38, 50, 56); stroke-linecap: round; stroke-linejoin: round; transform-origin: 280.357px 308.326px;" id="eltnvhcuwgujk" class="animable"></path><path d="M278.15,322.32a7.5,7.5,0,1,0-6.62,8.3A7.5,7.5,0,0,0,278.15,322.32Z" style="fill: rgb(38, 50, 56); stroke: rgb(38, 50, 56); stroke-linecap: round; stroke-linejoin: round; transform-origin: 270.698px 323.166px;" id="el34vpm570xq" class="animable"></path><g id="elfw36kvhtu7n"><rect x="235.52" y="328.94" width="10.99" height="4.82" style="fill: rgb(38, 50, 56); stroke: rgb(38, 50, 56); stroke-linecap: round; stroke-linejoin: round; transform-origin: 241.015px 331.35px; transform: rotate(-6.42deg);" class="animable"></rect></g><path d="M213.78,304.18c4.28,5.68,14.1,9,25,7.73s19.79-6.61,22.71-13.09Zm29.08,43.68c-10,1.12-18.16,5.67-21.75,11.37l45.51-5.11C261.84,349.35,252.82,346.74,242.86,347.86Z" style="fill: rgb(255, 255, 255); stroke: rgb(38, 50, 56); stroke-linecap: round; stroke-linejoin: round; transform-origin: 240.2px 329.025px;" id="el16vwz439pneh" class="animable"></path><path d="M187.13,362.78s-2.72-16.69-4.2-21.12-3.63-8.06-2.84-10.22,13.51-6,13.51-6,11.18-9,12.66-7.44,2.55,6.53,2.5,8.63-2.44,5.16-5,6.58a95.11,95.11,0,0,0-8.23,6s3,14.7,6.81,23.84,5.28,26.62,4.15,32.87-19.36,23.67-19.36,23.67" style="fill: rgb(255, 255, 255); stroke: rgb(38, 50, 56); stroke-linecap: round; stroke-linejoin: round; transform-origin: 194.341px 368.704px;" id="elvibmzq6l3rk" class="animable"></path><path d="M304.88,358s-17.37-16.71-20.34-21.37-4.66-2.33-7.28-3.43-13.1-2.57-17.51-4.78-8.39,4.25-5.1,8.13A33.43,33.43,0,0,0,266.12,345a96,96,0,0,1,12.07,6.65s5.16,14.66,9.57,24.49,12.71,24.57,19.32,26.6A66.53,66.53,0,0,0,319,405.28" style="fill: rgb(255, 255, 255); stroke: rgb(38, 50, 56); stroke-linecap: round; stroke-linejoin: round; transform-origin: 286.219px 366.625px;" id="elm8qncuuzcgb" class="animable"></path><path d="M279.93,334.53s-3.34,2.51-4.52,5.69" style="fill: none; stroke: rgb(38, 50, 56); stroke-linecap: round; stroke-linejoin: round; transform-origin: 277.67px 337.375px;" id="el3morwtqzvni" class="animable"></path></g><defs>     <filter id="active" height="200%">         <feMorphology in="SourceAlpha" result="DILATED" operator="dilate" radius="2"></feMorphology>                <feFlood flood-color="#32DFEC" flood-opacity="1" result="PINK"></feFlood>        <feComposite in="PINK" in2="DILATED" operator="in" result="OUTLINE"></feComposite>        <feMerge>            <feMergeNode in="OUTLINE"></feMergeNode>            <feMergeNode in="SourceGraphic"></feMergeNode>        </feMerge>    </filter>    <filter id="hover" height="200%">        <feMorphology in="SourceAlpha" result="DILATED" operator="dilate" radius="2"></feMorphology>                <feFlood flood-color="#ff0000" flood-opacity="0.5" result="PINK"></feFlood>        <feComposite in="PINK" in2="DILATED" operator="in" result="OUTLINE"></feComposite>        <feMerge>            <feMergeNode in="OUTLINE"></feMergeNode>            <feMergeNode in="SourceGraphic"></feMergeNode>        </feMerge>            <feColorMatrix type="matrix" values="0   0   0   0   0                0   1   0   0   0                0   0   0   0   0                0   0   0   1   0 "></feColorMatrix>    </filter></defs></svg>