<svg width="512" height="512" viewBox="0 0 512 512" fill="none" xmlns="http://www.w3.org/2000/svg">
<g clip-path="url(#clip0_1_2)">
<path d="M342.251 298.667H169.749C141.713 298.701 114.835 309.853 95.0107 329.677C75.1862 349.502 64.0339 376.38 64 404.416V512H448V404.416C447.966 376.38 436.814 349.502 416.989 329.677C397.165 309.853 370.287 298.701 342.251 298.667Z" fill="#B9E5FF"/>
<path d="M256 256C326.692 256 384 198.692 384 128C384 57.3076 326.692 0 256 0C185.308 0 128 57.3076 128 128C128 198.692 185.308 256 256 256Z" fill="#B9E5FF"/>
</g>
<defs>
<clipPath id="clip0_1_2">
<rect width="512" height="512" fill="white"/>
</clipPath>
</defs>
</svg>
